<svg xmlns:dc="http://purl.org/dc/elements/1.1/" xmlns:cc="http://creativecommons.org/ns#" xmlns:rdf="http://www.w3.org/1999/02/22-rdf-syntax-ns#" xmlns:svg="http://www.w3.org/2000/svg" xmlns="http://www.w3.org/2000/svg" xmlns:sodipodi="http://sodipodi.sourceforge.net/DTD/sodipodi-0.dtd" xmlns:inkscape="http://www.inkscape.org/namespaces/inkscape" version="1.1" x="0px" y="0px" viewBox="0 0 100 125"><g transform="translate(0,-952.36218)"><path d="m 74.00001,1002.3583 c -0.05,-0.3652 -0.2033,-0.9655 -0.4375,-1.25 l -12,-15.00005 c -0.7139,-0.89244 -1.9944,-0.967 -2.8125,-0.3125 -0.8181,0.6545 -0.967,1.99438 -0.3125,2.8125 l 9.4063,11.75005 -39.84382,0 c -1.1045,0 -2,0.8954 -2,2 0,1.1046 0.8955,2 2,2 l 39.84382,0 -9.4063,11.75 c -0.6545,0.8181 -0.47,2.1158 0.3125,2.8125 0.8181,0.7283 2.158,0.5056 2.8125,-0.3125 l 12,-15 c 0.3386,-0.4144 0.4104,-0.7226 0.4375,-1.25 z" style="text-indent:0;text-transform:none;direction:ltr;block-progression:tb;baseline-shift:baseline;color:#000000;enable-background:accumulate;" fill="#000000" fill-opacity="1" stroke="none" marker="none" visibility="visible" display="inline" overflow="visible"/></g><text x="0" y="115" fill="#000000" font-size="5px" font-weight="bold" font-family="'Helvetica Neue', Helvetica, Arial-Unicode, Arial, Sans-serif">Created by arjuazka</text><text x="0" y="120" fill="#000000" font-size="5px" font-weight="bold" font-family="'Helvetica Neue', Helvetica, Arial-Unicode, Arial, Sans-serif">from the Noun Project</text></svg>